<svg enable-background="new 0 0 512 512" viewBox="0 0 512 512" xmlns="http://www.w3.org/2000/svg"><g id="weather_x2C__cloud_x2C__sun_x2C__snow"><g><g fill="#fdd844"><path d="m476 221-54.64 39.03h-.01l-.33-.11c3.83-12.3 5.89-25.37 5.89-38.92 0-13.56-2.06-26.63-5.88-38.93l.32-.1h.01z"/><path d="m423.28 93.72-11.04 66.23-.01.01-.3.16c-12.35-23.45-31.6-42.7-55.05-55.05l.16-.3.01-.01z"/><path d="m412.24 282.05 11.04 66.23-66.23-11.04-.01-.01-.16-.31c23.45-12.34 42.7-31.59 55.03-55.04l.32.16z"/></g><path d="m421.03 182.07c3.82 12.3 5.88 25.37 5.88 38.93 0 13.55-2.06 26.62-5.89 38.92-2.37 7.64-5.43 14.99-9.11 21.96-12.33 23.45-31.58 42.7-55.03 55.04-6.97 3.67-14.31 6.73-21.96 9.1-2.82.88-5.67 1.66-8.57 2.35-.98-1.53-2.04-3.01-3.16-4.43-8.03-10.2-19.29-17.74-32.24-21.06.02-.63.05-1.25.05-1.88 0-3.48-.3-6.89-.87-10.2 1.94.14 3.9.2 5.87.2 49.71 0 90-40.29 90-90s-40.29-90-90-90-90 40.29-90 90c0 15.1 3.72 29.33 10.29 41.82-9.84 2.48-18.71 7.4-25.94 14.06-5.12-7.4-11.87-13.58-19.71-18.05-3.61-11.98-5.55-24.68-5.55-37.83 0-13.56 2.06-26.63 5.88-38.93 2.38-7.64 5.44-14.98 9.1-21.95 12.35-23.45 31.6-42.7 55.05-55.05 6.97-3.66 14.31-6.72 21.95-9.1 12.3-3.82 25.37-5.88 38.93-5.88s26.63 2.06 38.93 5.88c7.64 2.38 14.98 5.44 21.95 9.1 23.45 12.35 42.7 31.6 55.05 55.05 3.66 6.97 6.72 14.31 9.1 21.95z" fill="#fdb455"/><path d="m296 131c49.71 0 90 40.29 90 90s-40.29 90-90 90c-1.97 0-3.93-.06-5.87-.2-4.84-28.28-29.47-49.8-59.13-49.8-5.07 0-10 .63-14.71 1.82-6.57-12.49-10.29-26.72-10.29-41.82 0-49.71 40.29-90 90-90z" fill="#fdd844"/><path d="m335.03 95.64v.01l-.1.32c-12.3-3.82-25.37-5.88-38.93-5.88s-26.63 2.06-38.93 5.88l-.1-.32v-.01l39.03-54.64z" fill="#fdd844"/><path d="m165.01 256.01c1.93.84 3.81 1.78 5.63 2.82 7.84 4.47 14.59 10.65 19.71 18.05 7.23-6.66 16.1-11.58 25.94-14.06 4.71-1.19 9.64-1.82 14.71-1.82 29.66 0 54.29 21.52 59.13 49.8.57 3.31.87 6.72.87 10.2 0 .63-.03 1.25-.05 1.88 12.95 3.32 24.21 10.86 32.24 21.06 1.12 1.42 2.18 2.9 3.16 4.43 1.18 1.81 2.26 3.68 3.23 5.62 4.11 8.12 6.42 17.3 6.42 27.01 0 33.14-26.86 60-60 60h-180c-16.57 0-31.57-6.72-42.43-17.57-10.85-10.86-17.57-25.86-17.57-42.43 0-28.36 19.69-52.11 46.14-58.37-.74-3.76-1.14-7.65-1.14-11.63 0-33.14 26.86-60 60-60 8.54 0 16.66 1.78 24.01 5.01z" fill="#eef6ff"/><circle cx="251" cy="456" fill="#7fe8fd" r="15"/><path d="m234.96 104.77.16.3c-23.45 12.35-42.7 31.6-55.05 55.05l-.3-.16-.01-.01-11.04-66.23 66.23 11.04z" fill="#fdd844"/><circle cx="181" cy="456" fill="#7fe8fd" r="15"/><path d="m170.65 181.97.32.1c-3.82 12.3-5.88 25.37-5.88 38.93 0 13.15 1.94 25.85 5.55 37.83-1.82-1.04-3.7-1.98-5.63-2.82l-49.01-35.01 54.64-39.03z" fill="#fdd844"/><circle cx="111" cy="456" fill="#7fe8fd" r="15"/><g><g><path d="m236 401h-140c-5.522 0-10-4.478-10-10s4.478-10 10-10h140c5.522 0 10 4.478 10 10s-4.477 10-10 10z" fill="#daecfd"/></g></g></g></g><g id="Layer_1"/></svg>